<svg width="411" height="542" viewBox="0 0 411 542" fill="none" xmlns="http://www.w3.org/2000/svg">
<path d="M205.5 0C294.536 0 370.346 56.6233 398.887 135.824H356.974C330.589 78.5582 272.688 38.8069 205.5 38.8069C113.438 38.8069 38.8069 113.438 38.8069 205.5C38.8069 297.562 113.438 372.193 205.5 372.193C297.562 372.193 372.193 297.562 372.193 205.5C372.193 198.329 371.74 191.265 370.862 184.333H409.922C410.635 191.291 411 198.353 411 205.5C411 318.995 318.995 411 205.5 411C92.0055 411 0 318.995 0 205.5C0 92.0055 92.0055 0 205.5 0Z" fill="url(#paint0_linear_39_32)"/>
<path d="M386.305 226.667H328.094V184.333H386.305V226.667Z" fill="url(#paint1_linear_39_32)"/>
<path d="M144.644 206.382V337.725C128.786 330.415 114.469 320.337 102.309 308.11V164.047L144.644 206.382Z" fill="white"/>
<path d="M308.691 308.11C296.532 320.337 282.214 330.415 266.356 337.725V206.382L308.691 164.047V308.11Z" fill="white"/>
<path d="M295.745 91.3308C300.288 94.9265 304.611 98.7866 308.691 102.889V135.824L205.5 239.015L102.309 135.824V102.889C106.389 98.7867 110.712 94.9263 115.254 91.3308L205.5 180.805L295.745 91.3308Z" fill="white"/>
<path d="M17.4493 515L6.21731 503.768V471.632L17.4493 460.4H56.2153V470.306H22.8313L17.5273 475.61V499.79L22.8313 505.094H44.3593L49.6633 499.79V491.678H31.1773V482.708H60.9733V503.768L49.7413 515H17.4493ZM79.1479 515L70.0219 505.874V485.126L79.1479 476H102.47L111.596 485.126V505.874L102.47 515H79.1479ZM84.4519 506.03H97.1659L100.988 502.208V488.792L97.1659 484.97H84.4519L80.6299 488.792V502.208L84.4519 506.03ZM123.559 515V460.4H141.421L155.383 493.55H157.021L170.983 460.4H188.689V515H177.379V472.958H176.287L162.247 506.108H150.001L135.961 472.958H134.869V515H123.559ZM206.507 515L199.487 507.98V497.84L206.897 490.43H228.893V487.622L226.241 484.97H204.713V476H231.545L239.501 483.956V515H231.077V511.568H229.751L225.617 515H206.507ZM211.655 506.42H224.447L228.893 502.832V498.23H212.279L210.095 500.414V504.86L211.655 506.42ZM249.882 515V476H258.306V479.12H259.788L263.454 476H278.196V484.97H264.78L260.49 488.48V515H249.882ZM283.711 515V460.4H294.319V490.508H302.119L312.571 476H322.945V478.964L311.323 494.564L324.505 512.036V515H313.741L302.119 499.478H294.319V515H283.711ZM338.97 515L329.844 505.874V485.126L338.97 476H361.824L370.95 485.126V499.4H340.452V502.208L344.274 506.03H368.064V515H338.97ZM340.452 491.6H360.342V488.402L356.52 484.58H344.274L340.452 488.402V491.6ZM390.35 515L383.876 508.526V484.58H376.076V476H383.876V465.47H394.484V476H408.056V484.58H394.484V504.938L395.576 506.03H408.602V515H390.35Z" fill="white"/>
<defs>
<linearGradient id="paint0_linear_39_32" x1="5.82104e-06" y1="205.5" x2="351.768" y2="61.1532" gradientUnits="userSpaceOnUse">
<stop offset="0.08" stop-color="#9945FF"/>
<stop offset="0.3" stop-color="#8752F3"/>
<stop offset="0.5" stop-color="#5497D5"/>
<stop offset="0.6" stop-color="#43B4CA"/>
<stop offset="0.72" stop-color="#28E0B9"/>
<stop offset="0.97" stop-color="#19FB9B"/>
</linearGradient>
<linearGradient id="paint1_linear_39_32" x1="5.82104e-06" y1="205.5" x2="351.768" y2="61.1532" gradientUnits="userSpaceOnUse">
<stop offset="0.08" stop-color="#9945FF"/>
<stop offset="0.3" stop-color="#8752F3"/>
<stop offset="0.5" stop-color="#5497D5"/>
<stop offset="0.6" stop-color="#43B4CA"/>
<stop offset="0.72" stop-color="#28E0B9"/>
<stop offset="0.97" stop-color="#19FB9B"/>
</linearGradient>
</defs>
</svg>
